<svg width="24" height="24" viewBox="0 0 24 24" fill="none" xmlns="http://www.w3.org/2000/svg">
<path d="M21.68 16.96L18.55 9.65C17.49 7.17 15.54 7.07 14.23 9.43L12.34 12.84C11.38 14.57 9.59005 14.72 8.35005 13.17L8.13005 12.89C6.84005 11.27 5.02005 11.47 4.09005 13.32L2.37005 16.77C1.16005 19.17 2.91005 22 5.59005 22H18.35C20.95 22 22.7 19.35 21.68 16.96ZM6.97005 8C7.7657 8 8.52876 7.68393 9.09137 7.12132C9.65398 6.55871 9.97005 5.79565 9.97005 5C9.97005 4.20435 9.65398 3.44129 9.09137 2.87868C8.52876 2.31607 7.7657 2 6.97005 2C6.1744 2 5.41134 2.31607 4.84873 2.87868C4.28612 3.44129 3.97005 4.20435 3.97005 5C3.97005 5.79565 4.28612 6.55871 4.84873 7.12132C5.41134 7.68393 6.1744 8 6.97005 8V8Z" stroke="white" stroke-width="1.5" stroke-linecap="round" stroke-linejoin="round"/>
</svg>
