<svg width="24" height="24" viewBox="0 0 24 24" fill="none" xmlns="http://www.w3.org/2000/svg">
<path d="M3 17.98L5.55 17.99C6.46 17.99 7.31 17.54 7.81 16.79L14.2 7.20999C14.4474 6.83804 14.7836 6.53356 15.1782 6.32406C15.5727 6.11456 16.0133 6.00662 16.46 6.00999L21.01 6.02999M19 19.98L21 17.98M8.89 8.61999L7.81 7.11999C7.56022 6.77032 7.22987 6.48598 6.84693 6.29103C6.46398 6.09607 6.0397 5.99624 5.61 5.99999L3 6.00999M12.97 15.38L14.19 16.95C14.7 17.61 15.5 18 16.34 18L21.01 17.98M21 6.01999L19 4.01999" stroke="white" stroke-width="1.5" stroke-linecap="round" stroke-linejoin="round"/>
</svg>
